<svg xmlns="http://www.w3.org/2000/svg" viewBox="0 0 39.36 39.9"><defs><style>.cls-1{fill:#21224d;}.cls-2,.cls-3{fill:#fff;}.cls-3{fill-rule:evenodd;}</style></defs><title>icon-phone1</title><g id="ELEMENTS"><circle class="cls-1" cx="19.77" cy="21.04" r="17.69" transform="translate(-9.08 22.22) rotate(-49.13)"/><path class="cls-2" d="M10.21,31.05l1.47-5.5a10.19,10.19,0,1,1,4.06,4ZM16,27.51l.35.2a8.23,8.23,0,1,0-4-7.07,8.27,8.27,0,0,0,1.2,4.27l.22.35-.83,3.08Z"/><path class="cls-3" d="M24.35,22.05a1.72,1.72,0,0,0-1.46-.33c-.37.16-.61.75-.86,1.05a.36.36,0,0,1-.47.1,6.6,6.6,0,0,1-3.29-2.81.4.4,0,0,1,.05-.55,2.2,2.2,0,0,0,.6-1,2.1,2.1,0,0,0-.27-1.15,2.69,2.69,0,0,0-.84-1.28,1.17,1.17,0,0,0-1.27.19,2.56,2.56,0,0,0-.88,2,2.8,2.8,0,0,0,.08.64,5.26,5.26,0,0,0,.61,1.42,11.09,11.09,0,0,0,.65,1A9.92,9.92,0,0,0,19.8,24a8,8,0,0,0,1.74.83,3.83,3.83,0,0,0,2,.32,2.46,2.46,0,0,0,1.84-1.37,1.2,1.2,0,0,0,.09-.7C25.39,22.57,24.74,22.29,24.35,22.05Z"/></g></svg>