<svg xmlns="http://www.w3.org/2000/svg" viewBox="0 0 39.36 39.9"><defs><style>.cls-1{fill:#21224d;}.cls-2{fill:#fff;}</style></defs><title>icon-website1</title><g id="ELEMENTS"><circle class="cls-1" cx="19.85" cy="20.71" r="17.69"/><path class="cls-2" d="M15.47,21.58c.19,6,2.39,10.09,4.38,10.09s4.18-4.1,4.38-10.09Z"/><path class="cls-2" d="M19.85,9.75c-2,0-4.19,4.09-4.38,10.08h8.76C24,13.84,21.83,9.75,19.85,9.75Z"/><path class="cls-2" d="M26,19.83h5.66A11.83,11.83,0,0,0,22.53,9.18C24.5,11.05,25.84,15,26,19.83Z"/><path class="cls-2" d="M26,21.58c-.15,4.84-1.49,8.78-3.46,10.65a11.83,11.83,0,0,0,9.12-10.65Z"/><path class="cls-2" d="M13.71,21.58H8.05a11.84,11.84,0,0,0,9.11,10.65C15.19,30.36,13.85,26.42,13.71,21.58Z"/><path class="cls-2" d="M13.71,19.83c.14-4.84,1.48-8.78,3.45-10.65A11.84,11.84,0,0,0,8.05,19.83Z"/></g></svg>