<svg xmlns="http://www.w3.org/2000/svg" viewBox="0 0 39.36 39.9"><defs><style>.cls-1{fill:#21224d;}.cls-2{fill:#fff;}</style></defs><title>icon-email1</title><g id="ELEMENTS"><circle class="cls-1" cx="19.84" cy="19.6" r="17.69"/><path class="cls-2" d="M9.8,10.77,18,20.08a2.45,2.45,0,0,0,3.68,0l8.06-9.15a1.3,1.3,0,0,1,.23-.18,2.76,2.76,0,0,0-1.11-.23h-18a3,3,0,0,0-1.07.21Z"/><path class="cls-2" d="M31.21,11.82a.72.72,0,0,1-.15.27L23,21.24a4.21,4.21,0,0,1-6.31,0L8.48,11.93l0-.06A2.8,2.8,0,0,0,8,13.3V25.9a2.79,2.79,0,0,0,2.78,2.79h18a2.78,2.78,0,0,0,2.78-2.79V13.3A2.78,2.78,0,0,0,31.21,11.82Z"/></g></svg>